<?xml version="1.0" encoding="UTF-8" standalone="no"?>
<svg
   width="100%"
   viewBox="0 0 680 420"
   version="1.1"
   id="svg529"
   sodipodi:docname="infografica_scala.svg"
   inkscape:version="1.1.2 (0a00cf5339, 2022-02-04)"
   xmlns:inkscape="http://www.inkscape.org/namespaces/inkscape"
   xmlns:sodipodi="http://sodipodi.sourceforge.net/DTD/sodipodi-0.dtd"
   xmlns="http://www.w3.org/2000/svg"
   xmlns:svg="http://www.w3.org/2000/svg">
  <sodipodi:namedview
     id="namedview531"
     pagecolor="#ffffff"
     bordercolor="#666666"
     borderopacity="1.0"
     inkscape:pageshadow="2"
     inkscape:pageopacity="0.0"
     inkscape:pagecheckerboard="0"
     showgrid="false"
     inkscape:zoom="1.6309524"
     inkscape:cx="339.9854"
     inkscape:cy="210"
     inkscape:window-width="1530"
     inkscape:window-height="936"
     inkscape:window-x="70"
     inkscape:window-y="27"
     inkscape:window-maximized="1"
     inkscape:current-layer="svg529" />
  <style
     id="style294">
.gnd{fill:#e4ddd0;stroke:#c0b8a8;stroke-width:.5}
.wall{fill:#f2ede2;stroke:#a09080;stroke-width:.8}
.wall2{fill:#ede8d8;stroke:#a09080;stroke-width:.7}
.win{fill:#b8d8f4;stroke:#78a8d8;stroke-width:.5}
.win2{fill:#b8d8f4;stroke:#78a8d8;stroke-width:.4}
.flr{stroke:#c8bca8;stroke-width:.4;fill:none}
.roof{fill:#c04030;stroke:#982e20;stroke-width:.8}
.roof2{fill:#b05828;stroke:#8a3e18;stroke-width:.7}
.trunk{fill:#7a5228;stroke:#5a3810;stroke-width:.8}
.br{fill:none;stroke:#5a3810;stroke-width:1.6;stroke-linecap:round}
.lf{fill:#3a7828;fill-opacity:.88}
.twr{fill:#bcc2c8;stroke:#8a9298;stroke-width:.7}
.twr-ring{fill:#9aa0a8;stroke:#6a7078;stroke-width:.6}
.ant-v{fill:#d4d8dc;stroke:#8a9298;stroke-width:.5}
.par-dish{fill:#c8cccc;stroke:#8a9298;stroke-width:.8}
.shelter{fill:#a8b0b8;stroke:#6a7278;stroke-width:.6}
.person{fill:none;stroke:#4a5568;stroke-width:1.4;stroke-linecap:round;stroke-linejoin:round}
.person-head{fill:#4a5568;stroke:none}
.eq-line{stroke:#c04830;stroke-width:2.5;fill:none}
.arr{stroke:#4a5568;stroke-width:1.2;fill:none}
.lb{font:11px/1.4 system-ui,sans-serif;fill:#718096}
.lb-s{font:10.5px/1.4 system-ui,sans-serif;fill:#4a5568}
.lb-h{font:500 12px/1.4 system-ui,sans-serif;fill:#111820}
.lb-red{font:500 12px/1.4 system-ui,sans-serif;fill:#c04830}
@media(prefers-color-scheme:dark){
.gnd{fill:#3a3530;stroke:#555}
.wall{fill:#38342e;stroke:#6a5e50}.wall2{fill:#312e28;stroke:#5a5040}
.win{fill:#1a2a3a;stroke:#4a7a9a}.win2{fill:#1a2a3a;stroke:#4a7a9a}
.flr{stroke:#504840}.roof{fill:#7a2818;stroke:#5a1808}.roof2{fill:#7a3818;stroke:#5a2808}
.trunk{fill:#4a3018;stroke:#2a1808}.br{stroke:#3a2408}.lf{fill:#1a5018}
.twr{fill:#5a6068;stroke:#4a5058}.twr-ring{fill:#404850;stroke:#303840}
.ant-v{fill:#606870;stroke:#404850}.par-dish{fill:#505858;stroke:#383e3e}
.shelter{fill:#3a4248;stroke:#282e34}
.person{stroke:#9ea8b4}.person-head{fill:#9ea8b4}
.eq-line{stroke:#e05040}.arr{stroke:#9ea8b4}
.lb{fill:#9ea8b4}.lb-s{fill:#c8cdd8}.lb-h{fill:#e8e4de}.lb-red{fill:#e05040}}
</style>
  <defs
     id="defs305">
    <marker
       id="mh"
       viewBox="0 0 10 10"
       refX="8"
       refY="5"
       markerWidth="6"
       markerHeight="6"
       orient="auto-start-reverse">
      <path
         d="M2 1L8 5L2 9"
         stroke="context-stroke"
         stroke-width="1.5"
         stroke-linecap="round"
         fill="none"
         id="path296" />
    </marker>
    <marker
       id="mh-red"
       viewBox="0 0 10 10"
       refX="8"
       refY="5"
       markerWidth="7"
       markerHeight="7"
       orient="auto-start-reverse">
      <path
         d="M2 1L8 5L2 9"
         stroke="#c04830"
         stroke-width="1.8"
         stroke-linecap="round"
         fill="none"
         id="path299" />
    </marker>
    <marker
       id="mh-g"
       viewBox="0 0 10 10"
       refX="8"
       refY="5"
       markerWidth="5"
       markerHeight="5"
       orient="auto-start-reverse">
      <path
         d="M2 1L8 5L2 9"
         stroke="#8a9298"
         stroke-width="1.5"
         stroke-linecap="round"
         fill="none"
         id="path302" />
    </marker>
  </defs>
  <rect
     class="gnd"
     x="40"
     y="330"
     width="600"
     height="16"
     id="rect307" />
  <!-- PALAZZO -->
  <rect
     class="wall"
     x="62"
     y="90"
     width="76"
     height="240"
     rx="2"
     id="rect309" />
  <rect
     class="roof"
     x="59"
     y="84"
     width="82"
     height="8"
     rx="1"
     id="rect311" />
  <line
     class="flr"
     x1="62"
     y1="114"
     x2="138"
     y2="114"
     id="line313" />
  <line
     class="flr"
     x1="62"
     y1="138"
     x2="138"
     y2="138"
     id="line315" />
  <line
     class="flr"
     x1="62"
     y1="162"
     x2="138"
     y2="162"
     id="line317" />
  <line
     class="flr"
     x1="62"
     y1="186"
     x2="138"
     y2="186"
     id="line319" />
  <line
     class="flr"
     x1="62"
     y1="210"
     x2="138"
     y2="210"
     id="line321" />
  <line
     class="flr"
     x1="62"
     y1="234"
     x2="138"
     y2="234"
     id="line323" />
  <line
     class="flr"
     x1="62"
     y1="258"
     x2="138"
     y2="258"
     id="line325" />
  <line
     class="flr"
     x1="62"
     y1="282"
     x2="138"
     y2="282"
     id="line327" />
  <line
     class="flr"
     x1="62"
     y1="306"
     x2="138"
     y2="306"
     id="line329" />
  <rect
     class="win"
     x="71"
     y="94"
     width="12"
     height="10"
     rx="1"
     id="rect331" />
  <rect
     class="win"
     x="117"
     y="94"
     width="12"
     height="10"
     rx="1"
     id="rect333" />
  <rect
     class="win"
     x="71"
     y="118"
     width="12"
     height="10"
     rx="1"
     id="rect335" />
  <rect
     class="win"
     x="117"
     y="118"
     width="12"
     height="10"
     rx="1"
     id="rect337" />
  <rect
     class="win"
     x="71"
     y="142"
     width="12"
     height="10"
     rx="1"
     id="rect339" />
  <rect
     class="win"
     x="117"
     y="142"
     width="12"
     height="10"
     rx="1"
     id="rect341" />
  <rect
     class="win"
     x="71"
     y="166"
     width="12"
     height="10"
     rx="1"
     id="rect343" />
  <rect
     class="win"
     x="117"
     y="166"
     width="12"
     height="10"
     rx="1"
     id="rect345" />
  <rect
     class="win"
     x="71"
     y="190"
     width="12"
     height="10"
     rx="1"
     id="rect347" />
  <rect
     class="win"
     x="117"
     y="190"
     width="12"
     height="10"
     rx="1"
     id="rect349" />
  <rect
     class="win"
     x="71"
     y="214"
     width="12"
     height="10"
     rx="1"
     id="rect351" />
  <rect
     class="win"
     x="117"
     y="214"
     width="12"
     height="10"
     rx="1"
     id="rect353" />
  <rect
     class="win"
     x="71"
     y="238"
     width="12"
     height="10"
     rx="1"
     id="rect355" />
  <rect
     class="win"
     x="117"
     y="238"
     width="12"
     height="10"
     rx="1"
     id="rect357" />
  <rect
     class="win"
     x="71"
     y="262"
     width="12"
     height="10"
     rx="1"
     id="rect359" />
  <rect
     class="win"
     x="117"
     y="262"
     width="12"
     height="10"
     rx="1"
     id="rect361" />
  <rect
     class="win"
     x="71"
     y="286"
     width="12"
     height="10"
     rx="1"
     id="rect363" />
  <rect
     class="win"
     x="117"
     y="286"
     width="12"
     height="10"
     rx="1"
     id="rect365" />
  <rect
     style="fill:#8c6840;stroke:#6a4e28;stroke-width:.6"
     x="91"
     y="308"
     width="18"
     height="22"
     rx="1"
     id="rect367" />
  <!-- PERSONA -->
  <circle
     class="person-head"
     cx="220"
     cy="316"
     r="3.5"
     id="circle369" />
  <line
     class="person"
     x1="220"
     y1="320"
     x2="220"
     y2="325"
     id="line371" />
  <line
     class="person"
     x1="215"
     y1="322"
     x2="225"
     y2="322"
     id="line373" />
  <line
     class="person"
     x1="220"
     y1="325"
     x2="216"
     y2="330"
     id="line375" />
  <line
     class="person"
     x1="220"
     y1="325"
     x2="224"
     y2="330"
     id="line377" />
  <!-- CASA DUE PIANI -->
  <rect
     class="wall2"
     x="230"
     y="274"
     width="44"
     height="56"
     rx="1"
     id="rect379" />
  <polygon
     class="roof2"
     points="227,274 252,258 277,274"
     id="polygon381" />
  <rect
     style="fill:#b07850;stroke:#8a5830;stroke-width:.5"
     x="262"
     y="252"
     width="6"
     height="10"
     rx="1"
     id="rect383" />
  <rect
     class="win2"
     x="236"
     y="279"
     width="12"
     height="10"
     rx="1"
     id="rect385" />
  <rect
     class="win2"
     x="256"
     y="279"
     width="12"
     height="10"
     rx="1"
     id="rect387" />
  <rect
     class="win2"
     x="236"
     y="299"
     width="12"
     height="9"
     rx="1"
     id="rect389" />
  <rect
     class="win2"
     x="256"
     y="299"
     width="12"
     height="9"
     rx="1"
     id="rect391" />
  <rect
     style="fill:#8c6840;stroke:#6a4e28;stroke-width:.5"
     x="246"
     y="312"
     width="10"
     height="18"
     rx="1"
     id="rect393" />
  <!-- QUERCIA -->
  <rect
     class="trunk"
     x="410"
     y="276"
     width="11"
     height="54"
     rx="3"
     id="rect395" />
  <path
     class="br"
     d="M415,278 Q399,258 387,244"
     id="path397" />
  <path
     class="br"
     d="M415,278 Q431,256 443,242"
     id="path399" />
  <path
     class="br"
     d="M415,272 Q413,252 411,236"
     id="path401" />
  <path
     class="br"
     style="stroke-width:1"
     d="M387,244 Q379,234 375,226"
     id="path403" />
  <path
     class="br"
     style="stroke-width:1"
     d="M387,244 Q385,232 390,224"
     id="path405" />
  <path
     class="br"
     style="stroke-width:1"
     d="M443,242 Q451,232 455,224"
     id="path407" />
  <path
     class="br"
     style="stroke-width:1"
     d="M443,242 Q445,230 440,222"
     id="path409" />
  <ellipse
     class="lf"
     cx="374"
     cy="223"
     rx="13"
     ry="9"
     id="ellipse411" />
  <ellipse
     class="lf"
     cx="389"
     cy="218"
     rx="12"
     ry="8"
     id="ellipse413" />
  <ellipse
     class="lf"
     cx="410"
     cy="230"
     rx="11"
     ry="8"
     id="ellipse415" />
  <ellipse
     class="lf"
     cx="441"
     cy="218"
     rx="11"
     ry="8"
     id="ellipse417" />
  <ellipse
     class="lf"
     cx="456"
     cy="220"
     rx="12"
     ry="9"
     id="ellipse419" />
  <!-- TORRE -->
  <rect
     class="shelter"
     x="552"
     y="312"
     width="40"
     height="18"
     rx="2"
     id="rect421" />
  <rect
     class="twr-ring"
     x="555"
     y="326"
     width="32"
     height="5"
     rx="1"
     id="rect423" />
  <rect
     style="fill:#606870"
     x="557"
     y="326"
     width="3"
     height="5"
     id="rect425" />
  <rect
     style="fill:#606870"
     x="564"
     y="326"
     width="3"
     height="5"
     id="rect427" />
  <rect
     style="fill:#606870"
     x="571"
     y="326"
     width="3"
     height="5"
     id="rect429" />
  <rect
     style="fill:#606870"
     x="578"
     y="326"
     width="3"
     height="5"
     id="rect431" />
  <polygon
     class="twr"
     points="554,330 586,330 580,90 560,90"
     id="polygon433" />
  <line
     style="stroke:#9aa0a8;stroke-width:.5;fill:none"
     x1="556"
     y1="300"
     x2="584"
     y2="300"
     id="line435" />
  <line
     style="stroke:#9aa0a8;stroke-width:.5;fill:none"
     x1="557"
     y1="268"
     x2="583"
     y2="268"
     id="line437" />
  <line
     style="stroke:#9aa0a8;stroke-width:.5;fill:none"
     x1="558"
     y1="236"
     x2="582"
     y2="236"
     id="line439" />
  <line
     style="stroke:#9aa0a8;stroke-width:.5;fill:none"
     x1="560"
     y1="204"
     x2="580"
     y2="204"
     id="line441" />
  <line
     style="stroke:#9aa0a8;stroke-width:.5;fill:none"
     x1="561"
     y1="172"
     x2="579"
     y2="172"
     id="line443" />
  <line
     style="stroke:#9aa0a8;stroke-width:.5;fill:none"
     x1="562"
     y1="142"
     x2="578"
     y2="142"
     id="line445" />
  <line
     style="stroke:#9aa0a8;stroke-width:.5;fill:none"
     x1="563"
     y1="116"
     x2="577"
     y2="116"
     id="line447" />
  <rect
     class="twr-ring"
     x="558"
     y="86"
     width="24"
     height="6"
     rx="1"
     id="rect449" />
  <rect
     class="twr-ring"
     x="555"
     y="74"
     width="30"
     height="4"
     rx="1"
     id="rect451" />
  <rect
     class="twr-ring"
     x="568"
     y="46"
     width="4"
     height="30"
     rx="1"
     id="rect453" />
  <rect
     class="ant-v"
     x="556"
     y="38"
     width="5"
     height="38"
     rx="1"
     transform="rotate(-10,558,76)"
     id="rect455" />
  <rect
     class="ant-v"
     x="563"
     y="36"
     width="5"
     height="38"
     rx="1"
     transform="rotate(-4,565,76)"
     id="rect457" />
  <rect
     class="ant-v"
     x="574"
     y="36"
     width="5"
     height="38"
     rx="1"
     transform="rotate(4,577,76)"
     id="rect459" />
  <rect
     class="ant-v"
     x="581"
     y="38"
     width="5"
     height="38"
     rx="1"
     transform="rotate(10,584,76)"
     id="rect461" />
  <line
     style="stroke:#b45309;stroke-width:.8;fill:none"
     x1="552"
     y1="48"
     x2="556"
     y2="40"
     marker-end="url(#mh-g)"
     id="line463" />
  <line
     style="stroke:#b45309;stroke-width:.8;fill:none"
     x1="591"
     y1="48"
     x2="587"
     y2="40"
     marker-end="url(#mh-g)"
     id="line465" />
  <g
     transform="translate(600,60)"
     id="g479">
    <ellipse
       class="par-dish"
       cx="0"
       cy="0"
       rx="11"
       ry="8"
       id="ellipse467" />
    <path
       style="fill:none;stroke:#707880;stroke-width:1.2"
       d="M-6,-5 Q4,0 -6,5"
       id="path469" />
    <circle
       style="fill:#8a9298;stroke:none"
       cx="-3"
       cy="0"
       r="1.8"
       id="circle471" />
    <line
       style="stroke:#8a9298;stroke-width:1;fill:none"
       x1="-3"
       y1="0"
       x2="9"
       y2="0"
       id="line473" />
    <line
       style="stroke:#8a9298;stroke-width:.8;fill:none"
       x1="11"
       y1="-4"
       x2="16"
       y2="-8"
       id="line475" />
    <line
       style="stroke:#8a9298;stroke-width:.8;fill:none"
       x1="11"
       y1="4"
       x2="16"
       y2="8"
       id="line477" />
  </g>
  <line
     style="stroke:#8a9298;stroke-width:.7;fill:none"
     x1="616"
     y1="52"
     x2="572"
     y2="54"
     id="line481" />
  <line
     style="stroke:#8a9298;stroke-width:.7;fill:none"
     x1="616"
     y1="68"
     x2="572"
     y2="66"
     id="line483" />
  <line
     style="stroke:#8a9298;stroke-width:.5;stroke-dasharray:2 2;fill:none"
     x1="562"
     y1="88"
     x2="561"
     y2="98"
     id="line485" />
  <line
     style="stroke:#8a9298;stroke-width:.5;stroke-dasharray:2 2;fill:none"
     x1="578"
     y1="88"
     x2="579"
     y2="98"
     id="line487" />
  <!-- LINEA ROSSA -->
  <line
     class="eq-line"
     x1="143"
     y1="90"
     x2="551"
     y2="90"
     marker-start="url(#mh-red)"
     marker-end="url(#mh-red)"
     id="line489" />
  <rect
     style="fill:#fff8f6;stroke:none"
     x="296"
     y="80"
     width="124"
     height="16"
     rx="3"
     id="rect491" />
  <text
     class="lb-red"
     x="358"
     y="91"
     text-anchor="middle"
     id="text493">stessa altezza</text>
  <!-- FRECCE QUOTA -->
  <line
     class="arr"
     x1="48"
     y1="332"
     x2="48"
     y2="92"
     marker-start="url(#mh)"
     marker-end="url(#mh)"
     id="line495" />
  <text
     class="lb"
     x="38"
     y="218"
     text-anchor="middle"
     transform="rotate(-90,38,218)"
     id="text497">30 m</text>
  <line
     class="arr"
     x1="209"
     y1="330"
     x2="209"
     y2="314"
     marker-start="url(#mh)"
     marker-end="url(#mh)"
     id="line499" />
  <line
     class="arr"
     x1="282"
     y1="328"
     x2="282"
     y2="256"
     marker-start="url(#mh)"
     marker-end="url(#mh)"
     id="line501" />
  <line
     class="arr"
     x1="463"
     y1="332"
     x2="463"
     y2="228"
     marker-start="url(#mh)"
     marker-end="url(#mh)"
     id="line503" />
  <line
     class="arr"
     x1="636"
     y1="332"
     x2="636"
     y2="92"
     marker-start="url(#mh)"
     marker-end="url(#mh)"
     id="line505" />
  <text
     class="lb-h"
     x="644"
     y="218"
     id="text507">30 m</text>
  <!-- ETICHETTE -->
  <text
     class="lb-h"
     x="100"
     y="360"
     text-anchor="middle"
     id="text509"
     style="font-style:normal;font-variant:normal;font-weight:500;font-stretch:normal;font-size:12px;line-height:1.4;font-family:system-ui, sans-serif">Palazzo</text>
  <text
     class="lb-s"
     x="100"
     y="373"
     text-anchor="middle"
     id="text511"
     style="font-style:normal;font-variant:normal;font-weight:normal;font-stretch:normal;font-size:10.5px;line-height:1.4;font-family:system-ui, sans-serif">10 piani ≈ 30 m</text>
  <text
     class="lb-h"
     x="252"
     y="360"
     text-anchor="middle"
     id="text517"
     style="font-style:normal;font-variant:normal;font-weight:500;font-stretch:normal;font-size:12px;line-height:1.4;font-family:system-ui, sans-serif">Casa</text>
  <text
     class="lb-s"
     x="252"
     y="373"
     text-anchor="middle"
     id="text519"
     style="font-style:normal;font-variant:normal;font-weight:normal;font-stretch:normal;font-size:10.5px;line-height:1.4;font-family:system-ui, sans-serif">2 piani ≈ 7 m</text>
  <text
     class="lb-h"
     x="415"
     y="360"
     text-anchor="middle"
     id="text521"
     style="font-style:normal;font-variant:normal;font-weight:500;font-stretch:normal;font-size:12px;line-height:1.4;font-family:system-ui, sans-serif">Quercia adulta</text>
  <text
     class="lb-s"
     x="415"
     y="373"
     text-anchor="middle"
     id="text523"
     style="font-style:normal;font-variant:normal;font-weight:normal;font-stretch:normal;font-size:10.5px;line-height:1.4;font-family:system-ui, sans-serif">≈ 13 m</text>
  <text
     class="lb-h"
     x="570"
     y="360"
     text-anchor="middle"
     id="text525"
     style="font-style:normal;font-variant:normal;font-weight:500;font-stretch:normal;font-size:12px;line-height:1.4;font-family:system-ui, sans-serif">Torre Inwit</text>
  <text
     class="lb-s"
     x="570"
     y="373"
     text-anchor="middle"
     id="text527"
     style="font-style:normal;font-variant:normal;font-weight:normal;font-stretch:normal;font-size:10.5px;line-height:1.4;font-family:system-ui, sans-serif">circa 30 m</text>
</svg>
