<svg width="100%" viewBox="0 0 680 265" xmlns="http://www.w3.org/2000/svg">
<style>
.tr-fill{fill:#ddd5c4}
.tr-line{fill:none;stroke:#8c7e6e;stroke-width:1.5;stroke-linejoin:round;stroke-linecap:round}
.ss-band{fill:#1d9e75;fill-opacity:.16;stroke:#1d9e75;stroke-width:.8;stroke-opacity:.5}
.twr{fill:#1a3a5c;stroke:#0c2840;stroke-width:.5}
.dash-l{stroke:#4a5568;stroke-dasharray:5 3;stroke-width:.8;fill:none;opacity:.65}
.grid-l{stroke:#b0aa9f;stroke-dasharray:3 5;stroke-width:.6;fill:none;opacity:.6}
.arr-a{stroke:#b45309;stroke-width:1.5;fill:none}
.arr-b{stroke:#1a3a5c;stroke-width:1.2;fill:none}
.tick{stroke:#aaa9a0;stroke-width:.5}
.axis-l{stroke:#aaa9a0;stroke-width:.5;fill:none}
.lb{font:11px/1.3 system-ui,sans-serif;fill:#718096}
.lb-s{font:11px/1.3 system-ui,sans-serif;fill:#4a5568}
.lb-b{font:11px/1.3 system-ui,sans-serif;fill:#1a3a5c}
.lb-g{font:500 11px/1.3 system-ui,sans-serif;fill:#085041}
.lb-a{font:500 12px/1.3 system-ui,sans-serif;fill:#b45309}
@media(prefers-color-scheme:dark){
.tr-fill{fill:#3a3530}
.tr-line{stroke:#a09080}
.ss-band{fill:#1d9e75;fill-opacity:.22;stroke:#5dcaa5;stroke-opacity:.6}
.twr{fill:#4a8ab8;stroke:#2a5a88}
.dash-l{stroke:#9ea8b4;opacity:.7}
.grid-l{stroke:#555;opacity:.7}
.arr-a{stroke:#ef9f27}.arr-b{stroke:#85b7eb}
.tick{stroke:#555}.axis-l{stroke:#555}
.lb{fill:#9ea8b4}.lb-s{fill:#cbd0d8}.lb-b{fill:#85b7eb}.lb-g{fill:#5dcaa5}.lb-a{fill:#ef9f27}}
</style>
<defs>
<marker id="mh" viewBox="0 0 10 10" refX="8" refY="5" markerWidth="5" markerHeight="5" orient="auto-start-reverse">
<path d="M2 1L8 5L2 9" stroke="context-stroke" stroke-width="1.5" stroke-linecap="round" fill="none"/>
</marker>
</defs>
<rect class="ss-band" x="60" y="27" width="520" height="45"/>
<polygon class="tr-fill" points="60,228 60,224 71.6,225 83.1,225 94.7,223 106.2,219 117.8,215 129.3,211 140.9,207 152.4,202 164,197 175.5,194 187.1,193 198.7,190 210.2,187 221.8,185 233.3,184 244.9,181 256.4,176 268,171 279.5,165 291.1,161 302.6,152 314.2,141 325.8,130 337.3,121 348.9,114 360.4,105 372,96 383.5,88 395.1,84 406.6,83 418.2,84 429.7,89 441.3,97 452.9,102 464.4,100 476,97 487.5,88 499.1,77 510.6,76 522.2,72 533.7,62 545.3,55 556.8,46 568.4,36 580,26 580,228"/>
<polyline class="tr-line" points="60,224 71.6,225 83.1,225 94.7,223 106.2,219 117.8,215 129.3,211 140.9,207 152.4,202 164,197 175.5,194 187.1,193 198.7,190 210.2,187 221.8,185 233.3,184 244.9,181 256.4,176 268,171 279.5,165 291.1,161 302.6,152 314.2,141 325.8,130 337.3,121 348.9,114 360.4,105 372,96 383.5,88 395.1,84 406.6,83 418.2,84 429.7,89 441.3,97 452.9,102 464.4,100 476,97 487.5,88 499.1,77 510.6,76 522.2,72 533.7,62 545.3,55 556.8,46 568.4,36 580,26"/>
<rect class="twr" x="57" y="168" width="8" height="56" rx="1"/>
<rect class="twr" x="60" y="161" width="2" height="9"/>
<line class="arr-b" x1="70" y1="170" x2="70" y2="222" marker-start="url(#mh)" marker-end="url(#mh)"/>
<text class="lb-b" x="75" y="200">30 m</text>
<line class="dash-l" x1="65" y1="168" x2="596" y2="168"/>
<line class="grid-l" x1="60" y1="72" x2="596" y2="72"/>
<line class="axis-l" x1="60" y1="228" x2="60" y2="27"/>
<line class="tick" x1="60" y1="168" x2="54" y2="168"/>
<text class="lb-b" x="51" y="172" text-anchor="end">212 m</text>
<line class="tick" x1="60" y1="72" x2="54" y2="72"/>
<text class="lb-g" x="51" y="76" text-anchor="end">259 m</text>
<line class="tick" x1="60" y1="27" x2="54" y2="27"/>
<text class="lb-g" x="51" y="31" text-anchor="end">281 m</text>
<text class="lb-b" x="110" y="163">cima torre: 212 m</text>
<line class="arr-a" x1="595" y1="170" x2="595" y2="74" marker-start="url(#mh)" marker-end="url(#mh)"/>
<text class="lb-a" x="602" y="117">min.</text>
<text class="lb-a" x="602" y="131">47 m</text>
<text class="lb-g" x="150" y="44">Zona bianca SS636</text>
<text class="lb-g" x="150" y="58">259–281 m s.l.m.</text>
<text class="lb-s" x="64" y="242" text-anchor="start">Ecocentro</text>
<text class="lb" x="64" y="254" text-anchor="start">sito proposto</text>
<text class="lb" x="320" y="254" text-anchor="middle">← circa 1,0 km →</text>
<text class="lb-s" x="578" y="242" text-anchor="end">Pixel SS636 nord</text>
<text class="lb" x="578" y="254" text-anchor="end">profilo QGIS/SRTM</text>
</svg>
